<svg xmlns="http://www.w3.org/2000/svg" viewBox="0 0 390.1 390.1"><defs><style>.cls-1{fill:#fff;}.cls-2{fill:#424242;}</style></defs><title>qr2Asset 1</title><g id="Layer_2" data-name="Layer 2"><g id="OBJECTS"><rect class="cls-1" width="390.1" height="390.1" rx="24.26"/><path class="cls-2" d="M325.88,202.74H310.56V218H264.82v46.31h14.87v15.85H264.61v14.59h60.63V264.5H279.47V249.17h30.68v-15h15.5V248.8h15.23v46.28h15.3v30.33H341.25V310.94H326v14.58H310.54V311.11H295.32v14.24H279.83V311H264.62v14.83H233.35l.22.21V295.42H218.49V280h29.77V248.9H233.34l.21.23V233.38h14.7v-15H218l.21-15.61-.22.21h30.41V187.18h-14.8V172l-.21.23h15.23v-15h46.55v30.4H264.73v14.77H294.9v-15l31,.26-.21-.23V203Z"/><path class="cls-2" d="M33.92,33.92H140.7V140.69H33.92Zm91.25,91.65v-76h-76v76Z"/><path class="cls-2" d="M140.76,249.57V356.34H34V249.57ZM49.32,264.75v76h76v-76Z"/><path class="cls-2" d="M249.38,33.91H356.14V140.68H249.38Zm91.44,15.6h-76v76h76Z"/><path class="cls-2" d="M218,79.87h15v30.41H203v30.53H187.51V126.48H172v29.86H156.08l.23.21c0-20.14,0-40.27,0-61.16h61.89V79.65Z"/><path class="cls-2" d="M233.34,248.9v15.33H203v15h-31.2V264.33h15V249.57H172v15H156.61V218.14l-.22.21H172l-.21-.21v15.39h31v15.6h30.77Z"/><path class="cls-2" d="M325.88,187.59V172.28H310.81v-15H340.9V172h15.28v45.67h-30.3V202.74l-.21.22h15v-15.6h-15Z"/><path class="cls-2" d="M233.35,325.84q0,7.8,0,15.61l.21-.22H203v15h-15.6V325.87l-.22.21h15.6V310.47l-.21.23h15.23v15.36h15.78Z"/><path class="cls-2" d="M79.24,203.4v29.8H64.33V218.8H48.92v14.43H34V203.4Z"/><path class="cls-2" d="M218.19,79.65h-30.4V34H202.3V64.49h15.84l-.22-.22q0,7.8.05,15.6Z"/><path class="cls-2" d="M33.66,186.86v-29.7h30.1v29.7Z"/><path class="cls-2" d="M218.14,64.49V34.15h14.8V64.27h-15Z"/><path class="cls-2" d="M171.35,79.41H156.9V49.31h14.45Z"/><path class="cls-2" d="M125.82,187.35H95.07V172l-.22.21,31,0-.22-.21v15.6Z"/><path class="cls-2" d="M171.46,325.61v30.74H157.1V325.82h14.6Z"/><path class="cls-2" d="M218.44,126.23h14.48v14.61H218.44Z"/><path class="cls-2" d="M140.68,217.88v15.37H126.32V218.09h14.6Z"/><path class="cls-2" d="M156.61,218.14l-15.92-.25.23.21.3-15.35L141,203h15.6l-.21-.21v15.6Z"/><path class="cls-2" d="M141.22,202.75h-15.4v-15.4l-.21.22h15.6l-.21-.21V203Z"/><path class="cls-2" d="M172,310.46H157V295.69h14.72v15Z"/><path class="cls-2" d="M171.75,310.67h15.64l-.22-.21v15.61l.22-.21-15.92-.25.23.2c.08-5.12.18-10.24.27-15.36Z"/><path class="cls-2" d="M95.07,172h-15v-14.8H94.85v15Z"/><path class="cls-2" d="M233.31,341.45h15v14.8H233.53v-15Z"/><path class="cls-2" d="M264.67,341.51H279v14.72H264.67Z"/><path class="cls-2" d="M310,341.88v14.48H295.59V341.88Z"/><path class="cls-2" d="M340.81,341.78v14.41H326.26V341.78Z"/><path class="cls-2" d="M202.55,233.74v-15.6h15.61v15.6Z"/><path class="cls-2" d="M110,64.76V110H64.63V64.76Z"/><path class="cls-2" d="M109.74,325.67H64.61V280.19h45.13Z"/><path class="cls-2" d="M279.94,110V64.77h45.21V110Z"/><path class="cls-2" d="M141.21,187.57v-.21H141Z"/><path class="cls-2" d="M218.16,202.75h-.22V203Z"/><path class="cls-2" d="M125.83,172.18V172h-.22Z"/><path class="cls-2" d="M172,218.35v-.21h-.21Z"/><path class="cls-2" d="M156.6,203v-.21h-.21Z"/><path class="cls-2" d="M233.55,172h-.21v.23Z"/><path class="cls-2" d="M187.09,157.25V187H172v31.12h15V202.75h30.91V172h15.4V157.25Z"/><path class="cls-2" d="M156.07,156.33v.21h.23Z"/></g></g></svg>